<?xml version="1.0" encoding="UTF-8" standalone="no"?>
<!--?xml version="1.0" encoding="utf-8"?-->

<!-- Generator: Adobe Illustrator 18.1.1, SVG Export Plug-In . SVG Version: 6.00 Build 0)  -->

<svg
   version="1.1"
   id="_x32_"
   x="0px"
   y="0px"
   viewBox="0 0 512 512"
   style="width: 256px; height: 256px; opacity: 1; scroll-behavior: unset;"
   xml:space="preserve"
   sodipodi:docname="肉球のアイコン2.svg"
   inkscape:version="1.2.2 (b0a8486541, 2022-12-01)"
   xmlns:inkscape="http://www.inkscape.org/namespaces/inkscape"
   xmlns:sodipodi="http://sodipodi.sourceforge.net/DTD/sodipodi-0.dtd"
   xmlns="http://www.w3.org/2000/svg"
   xmlns:svg="http://www.w3.org/2000/svg"><defs
   id="defs19" /><sodipodi:namedview
   id="namedview17"
   pagecolor="#ffffff"
   bordercolor="#000000"
   borderopacity="0.25"
   inkscape:showpageshadow="2"
   inkscape:pageopacity="0.0"
   inkscape:pagecheckerboard="0"
   inkscape:deskcolor="#d1d1d1"
   showgrid="false"
   inkscape:zoom="1.6523438"
   inkscape:cx="256"
   inkscape:cy="256.3026"
   inkscape:window-width="1920"
   inkscape:window-height="1017"
   inkscape:window-x="0"
   inkscape:window-y="28"
   inkscape:window-maximized="1"
   inkscape:current-layer="g14" />
<style
   type="text/css"
   style="scroll-behavior: unset;"
   id="style2">
	.st0{fill:#4B4B4B;}
</style>
<g
   style="scroll-behavior: unset;"
   id="g14">
	<path
   class="st0"
   d="M191.4,164.127c29.081-9.964,44.587-41.618,34.622-70.699c-9.952-29.072-41.6-44.592-70.686-34.626   c-29.082,9.956-44.588,41.608-34.632,70.69C130.665,158.582,162.314,174.075,191.4,164.127z"
   style="scroll-behavior:unset;fill:#ffd42a"
   id="path4" />
	<path
   class="st0"
   d="M102.394,250.767v0.01c16.706-25.815,9.316-60.286-16.484-76.986c-25.81-16.691-60.273-9.316-76.978,16.489   v0.01c-16.695,25.805-9.306,60.268,16.495,76.958C51.236,283.957,85.694,276.573,102.394,250.767z"
   style="scroll-behavior:unset;fill:#ffd42a"
   id="path6" />
	<path
   class="st0"
   d="M320.6,164.127c29.086,9.948,60.734-5.545,70.695-34.636c9.956-29.081-5.55-60.734-34.631-70.69   c-29.086-9.966-60.734,5.555-70.686,34.626C276.013,122.509,291.519,154.163,320.6,164.127z"
   style="scroll-behavior:unset;fill:#ffd42a"
   id="path8" />
	<path
   class="st0"
   d="M256,191.489c-87.976,0-185.048,121.816-156.946,208.493c27.132,83.684,111.901,49.195,156.946,49.195   c45.045,0,129.813,34.489,156.945-49.195C441.048,313.305,343.976,191.489,256,191.489z"
   style="scroll-behavior:unset;fill:#ffd42a"
   id="path10" />
	<path
   class="st0"
   d="M503.068,190.289v-0.01c-16.705-25.805-51.166-33.18-76.976-16.489c-25.801,16.7-33.19,51.171-16.486,76.986   v-0.01c16.7,25.806,51.158,33.19,76.968,16.481C512.374,250.557,519.764,216.095,503.068,190.289z"
   style="scroll-behavior:unset;fill:#ffd42a"
   id="path12" />
</g>
</svg>
